<svg width="1404" height="1404" viewBox="0 0 1404 1404" fill="none" xmlns="http://www.w3.org/2000/svg">
<circle cx="702" cy="702" r="702" fill="#26E21C"/>
<g filter="url(#filter0_d_22_8)">
<path d="M430.721 1279L414 1160.43L519.344 1137.05V261.944L415.672 251.923V125H765.148C848.754 125 920.098 134.464 979.18 153.391C1039.38 172.318 1087.87 199.039 1124.66 233.553C1161.44 266.954 1188.2 305.921 1204.92 350.456C1221.64 394.99 1230 442.308 1230 492.41C1230 574.798 1211.05 644.384 1173.15 701.165C1136.36 757.946 1083.41 800.811 1014.3 829.758C946.295 858.706 867.148 873.179 776.852 873.179H689.902V1130.37L934.033 1165.44L929.016 1279H430.721ZM689.902 727.886H740.066C828.131 727.886 894.459 717.309 939.049 696.155C983.639 675.001 1013.74 646.61 1029.34 610.983C1046.07 574.242 1054.43 534.161 1054.43 490.74C1054.43 419.484 1031.02 364.93 984.197 327.075C937.377 289.221 872.164 270.294 788.557 270.294H689.902V727.886Z" fill="white"/>
</g>
<defs>
<filter id="filter0_d_22_8" x="409" y="96" width="950" height="1288" filterUnits="userSpaceOnUse" color-interpolation-filters="sRGB">
<feFlood flood-opacity="0" result="BackgroundImageFix"/>
<feColorMatrix in="SourceAlpha" type="matrix" values="0 0 0 0 0 0 0 0 0 0 0 0 0 0 0 0 0 0 127 0" result="hardAlpha"/>
<feMorphology radius="48" operator="dilate" in="SourceAlpha" result="effect1_dropShadow_22_8"/>
<feOffset dx="62" dy="38"/>
<feGaussianBlur stdDeviation="9.5"/>
<feComposite in2="hardAlpha" operator="out"/>
<feColorMatrix type="matrix" values="0 0 0 0 0.144679 0 0 0 0 0.721171 0 0 0 0 0.192719 0 0 0 0.25 0"/>
<feBlend mode="normal" in2="BackgroundImageFix" result="effect1_dropShadow_22_8"/>
<feBlend mode="normal" in="SourceGraphic" in2="effect1_dropShadow_22_8" result="shape"/>
</filter>
</defs>
</svg>
